<svg height="20" viewBox="0 0 20 20" width="20" xmlns="http://www.w3.org/2000/svg"><g><path d="m20 10.0004319c0-5.5142851-4.4859309-10.0004319-10.0004319-10.0004319-5.5142851.0008435-9.9995681 4.48679465-9.9995681 10.0004319 0 5.5142851 4.48593085 10.0004319 10.0004319 10.0004319 5.5134213 0 9.9995681-4.4859309 9.9995681-10.0004319zm-18.75051288 0c0-4.82518842 3.92510851-8.75029693 8.75029693-8.75029693 4.82518845 0 8.75029695 3.92510851 8.75029695 8.75029693 0 4.8251884-3.9251085 8.7502969-8.75029695 8.7502969-4.82432462 0-8.75029693-3.9251085-8.75029693-8.7502969z"/><path d="m15.6961151 10.0224588c0 .3450234.2800656.6250675.6250674.6250675.3450235 0 .6250675-.2800657.6250675-.6250675 0-3.86939339-3.1481201-7.01751354-7.01751352-7.01751354-.34502343 0-.62506749.28006565-.62506749.62506748 0 .34500184.28006565.62506749.62506749.62506749 3.18029672 0 5.76737862 2.58708186 5.76737862 5.76737857z"/></g></svg>