<svg height="29" viewBox="0 0 20 29" width="20" xmlns="http://www.w3.org/2000/svg"><g transform="matrix(1 0 0 -1 0 28.684966)"><path d="m13.4331363 15.5486819c-3.62358206 0-6.56942005 2.9495127-6.56942005 6.56942 0 3.6210258 2.94577408 6.5668637 6.56942005 6.5668637 3.623582 0 6.5668637-2.9495127 6.5668637-6.56942 0-3.6210257-2.9432497-6.5668637-6.5668637-6.5668637zm0 12.1961975c-3.105544 0-5.63316825-2.5238537-5.63316825-5.6306119 0-3.1055441 2.52762425-5.630612 5.63316825-5.630612s5.6306119 2.5238537 5.6306119 5.630612c0 3.1067582-2.5238536 5.6306119-5.6306119 5.6306119z"/><path d="m13.4331363 17.9679182c-2.2879693 0-4.14762743 1.8623103-4.14762743 4.1501837 0 .2583768.21094743.4668158.46681578.4668158.25837675 0 .46934015-.2072024.46934015-.4668158 0-1.7699632 1.4441604-3.2078606 3.2116952-3.2078606.2621217 0 .4693457-.2109475.4693457-.4693402.0012429-.2596261-.207208-.4730788-.4693457-.4730788z"/><path d="m8.48410289 12.3395431c0-2.3391277-1.90474517-4.24029402-4.24380891-4.24029402-2.33538904 0-4.24029398 1.90100652-4.24029398 4.24029402 0 2.3391276 1.90474517 4.2402945 4.24029398 4.2402945 2.33912765.0012479 4.24380891-1.9010071 4.24380891-4.2402945zm-4.24380891 3.3014858c-1.81862918 0-3.3002077-1.4791181-3.3002077-3.3002077 0-1.8186292 1.48285668-3.30020768 3.3002077-3.30020768 1.82112158 0 3.30020849 1.47911808 3.30020849 3.30020768.00124733 1.8211216-1.47787266 3.3002077-3.30020849 3.3002077z"/><path d="m4.24380892 9.59466368c-1.51407574 0-2.74478352 1.23326412-2.74478352 2.74481552 0 .2583767.20720243.4668157.46934015.4668157.25837674 0 .46934015-.2109474.46934015-.4668157 0-.9998083.8088193-1.804889 1.80488896-1.804889.25837674 0 .46934567-.2109474.46934567-.4693402.00124293-.2596261-.20970355-.47058632-.46806751-.47058632z"/><path d="m13.1075252 6.32963732c1.7449752 0 3.1567023-1.41920434 3.1567023-3.16293337 0-1.74497524-1.4129733-3.16670395-3.1567023-3.16670395-1.7474996 0-3.16670727 1.42169676-3.16670727 3.16670395-.00249328 1.74372903 1.41546897 3.16293337 3.16670727 3.16293337zm0-5.39095702c1.2269691 0 2.2205475.99731587 2.2205475 2.22428503.001247 1.22696916-.9960708 2.22680939-2.2205475 2.22680939-1.2307398 0-2.230548-.99980827-2.230548-2.22680939 0-1.22696916 1.0010544-2.22428503 2.230548-2.22428503z"/><path d="m11.9440805 3.16299728c0-.63907972.5180061-1.15334718 1.1595782-1.15334718.2558812 0 .4668158-.21094743.4668158-.46934015 0-.26212174-.2072024-.46934015-.4668158-.46934015-1.1595782 0-2.0994727.93989456-2.0994727 2.09573415 0 .25837673.2109474.46681578.4693401.46681578.2633712-.00374469.4705864-.21219364.4705864-.47058635z"/></g></svg>