<svg height="50" viewBox="0 0 50 50" width="50" xmlns="http://www.w3.org/2000/svg"><path d="m12.5 0c-6.88920455 0-12.5 5.61079545-12.5 12.5 0 6.8892045 5.61079545 12.5 12.5 12.5 1.9109659 0 3.7242614-.437233 5.3444318-1.2073864.7057955 2.3371023 2.8919318 4.0482955 5.4510227 4.0482955 3.125 0 5.6818182-2.5568182 5.6818182-5.6818182 0-2.77875-2.0263636-5.0936364-4.6697727-5.5752841.443892-1.280625.6925-2.6544886.6925-4.0838068 0-6.88920455-5.6107955-12.5-12.5-12.5zm27.8409091 0c-5.3200568 0-9.6590909 4.33903409-9.6590909 9.65909091 0 5.32005679 4.3390341 9.65909089 9.6590909 9.65909089s9.6590909-4.3390341 9.6590909-9.65909089c0-5.32005682-4.3390341-9.65909091-9.6590909-9.65909091zm-27.8409091 2.27272727c5.6618182 0 10.2272727 4.56545455 10.2272727 10.22727273 0 5.6618182-4.5654545 10.2272727-10.2272727 10.2272727-5.66181818 0-10.22727273-4.5654545-10.22727273-10.2272727 0-5.66181818 4.56545455-10.22727273 10.22727273-10.22727273zm27.8409091 0c4.0926704 0 7.3863636 3.29369318 7.3863636 7.38636364 0 4.09267049-3.2936932 7.38636359-7.3863636 7.38636359-4.0926705 0-7.3863636-3.2936931-7.3863636-7.38636359 0-4.09267046 3.2936931-7.38636364 7.3863636-7.38636364zm-27.9477273 2.27272728c-.3018466.01331704-.5859091.14648295-.7878977.37064772-.2041932.22194318-.3085057.51713637-.2951875.81897728.0133182.3018409.1464829.58590909.3706477.78789772.2219432.20419318.5171364.30850568.8189773.2951875 3.1516477 0 5.6818182 2.53017046 5.6818182 5.68181823-.0044387.3040681.1131932.5970454.3262613.8145454.2152898.2152898.5060341.337358.8101137.337358.3040795 0 .5948295-.1220682.8101136-.337358.2130682-.2175057.3306989-.5104773.3262614-.8145454 0-4.37897732-3.5755682-7.9545455-7.9545455-7.9545455-.0355113-.00221932-.0710227-.00221932-.1065341 0zm28.4090909 0c-.3018466.01331704-.5859091.14648295-.7878977.37064772-.2041932.22194318-.3085057.51713637-.2951875.81897728.0133182.3018409.146483.58590909.3706477.78789772.2219432.20419318.5171364.30850568.8189773.2951875.5326705 0 1.0586932.26855682 1.5092045.87.4505114.60144318.7635228 1.51369318.7635228 2.53909093-.0044387.3040682.1131932.5970454.3262613.8145454.2152898.2152898.5060341.337358.8101137.337358.3040795 0 .5948295-.1220682.8101136-.337358.2130682-.2175056.3306989-.5104772.3262614-.8145454 0-1.48482956-.4416705-2.86090911-1.2251137-3.90625002-.7834431-1.04534091-1.9686363-1.77556818-3.3203409-1.77556818-.0355113-.00221932-.0710227-.00221932-.1065341 0zm-17.4892045 14.20454545c1.88875.0088778 3.3913636 1.518125 3.3913636 3.4090909 0 1.8953977-1.5136932 3.4090909-3.4090909 3.4090909-1.7600568 0-3.1938068-1.2984091-3.3913636-3.0006818 1.3827272-1.0209659 2.5435227-2.32375 3.4090909-3.8175zm14.1869318 6.25c-6.8892045 0-12.5 5.6107955-12.5 12.5s5.6107955 12.5 12.5 12.5 12.5-5.6107955 12.5-12.5-5.6107955-12.5-12.5-12.5zm-31.81818182 1.1363636c-3.125 0-5.68181818 2.5568182-5.68181818 5.6818182s2.55681818 5.6818182 5.68181818 5.6818182 5.68181822-2.5568182 5.68181822-5.6818182-2.55681822-5.6818182-5.68181822-5.6818182zm31.81818182 1.1363637c5.6618182 0 10.2272727 4.5654545 10.2272727 10.2272727s-4.5654545 10.2272727-10.2272727 10.2272727-10.2272727-4.5654545-10.2272727-10.2272727 4.5654545-10.2272727 10.2272727-10.2272727zm-31.81818182 1.1363636c1.89539773 0 3.40909091 1.5136932 3.40909091 3.4090909s-1.51369318 3.4090909-3.40909091 3.4090909-3.40909091-1.5136932-3.40909091-3.4090909 1.51369318-3.4090909 3.40909091-3.4090909zm31.71136362 1.1363636c-.3018466.0133171-.5859091.146483-.7878977.3706478-.2041932.2219432-.3085057.5171363-.2951875.8189772.0133182.301841.1464829.5859091.3706477.7878978.2219432.2041932.5171364.3085057.8189773.2951875 3.1516477 0 5.6818182 2.5301704 5.6818182 5.6818182-.0044387.3040681.1131932.5970454.3262613.8145454.2152898.2152898.5060341.337358.8101137.337358.3040795 0 .5948295-.1220682.8101136-.337358.2130682-.2175057.3306989-.5104773.3262614-.8145454 0-4.3789773-3.5755682-7.9545455-7.9545455-7.9545455-.0355113-.0022193-.0710227-.0022193-.1065341 0zm-20.9159091 6.8181819c-3.125 0-5.6818182 2.5568181-5.6818182 5.6818181s2.5568182 5.6818182 5.6818182 5.6818182 5.6818182-2.5568182 5.6818182-5.6818182-2.5568182-5.6818181-5.6818182-5.6818181zm0 2.2727272c1.8953978 0 3.4090909 1.5136932 3.4090909 3.4090909 0 1.8953978-1.5136931 3.409091-3.4090909 3.409091-1.8953977 0-3.4090909-1.5136932-3.4090909-3.409091 0-1.8953977 1.5136932-3.4090909 3.4090909-3.4090909z"/></svg>